<mxfile host="app.diagrams.net" modified="2023-06-03T06:25:41.375Z" agent="Mozilla/5.0 (Windows NT 10.0; Win64; x64) AppleWebKit/537.36 (KHTML, like Gecko) Chrome/113.0.0.0 Safari/537.36 Edg/113.0.1774.57" etag="PGmh2sgSjf8-PMrUCuWv" version="21.3.7" type="github">
  <diagram name="Page-1" id="jhjrjNHzEV4yyH-IEUCx">
    <mxGraphModel dx="1235" dy="636" grid="1" gridSize="10" guides="1" tooltips="1" connect="1" arrows="1" fold="1" page="1" pageScale="1" pageWidth="827" pageHeight="1169" math="0" shadow="0">
      <root>
        <mxCell id="0" />
        <mxCell id="1" parent="0" />
        <mxCell id="BxUz1oVav65Ob7CPNvjl-8" style="edgeStyle=orthogonalEdgeStyle;rounded=0;orthogonalLoop=1;jettySize=auto;html=1;" edge="1" parent="1" source="BxUz1oVav65Ob7CPNvjl-2" target="BxUz1oVav65Ob7CPNvjl-5">
          <mxGeometry relative="1" as="geometry" />
        </mxCell>
        <mxCell id="BxUz1oVav65Ob7CPNvjl-2" value="User Question" style="rounded=1;whiteSpace=wrap;html=1;fillColor=#d5e8d4;strokeColor=#82b366;" vertex="1" parent="1">
          <mxGeometry x="40" y="100" width="120" height="60" as="geometry" />
        </mxCell>
        <mxCell id="BxUz1oVav65Ob7CPNvjl-7" style="edgeStyle=orthogonalEdgeStyle;rounded=0;orthogonalLoop=1;jettySize=auto;html=1;" edge="1" parent="1" source="BxUz1oVav65Ob7CPNvjl-5" target="BxUz1oVav65Ob7CPNvjl-6">
          <mxGeometry relative="1" as="geometry" />
        </mxCell>
        <mxCell id="BxUz1oVav65Ob7CPNvjl-5" value="Tutorial Generator" style="rounded=0;whiteSpace=wrap;html=1;fillColor=#dae8fc;strokeColor=#6c8ebf;" vertex="1" parent="1">
          <mxGeometry x="200" y="100" width="120" height="60" as="geometry" />
        </mxCell>
        <mxCell id="BxUz1oVav65Ob7CPNvjl-14" value="" style="edgeStyle=orthogonalEdgeStyle;rounded=0;orthogonalLoop=1;jettySize=auto;html=1;" edge="1" parent="1" source="BxUz1oVav65Ob7CPNvjl-6" target="BxUz1oVav65Ob7CPNvjl-13">
          <mxGeometry relative="1" as="geometry">
            <Array as="points">
              <mxPoint x="510" y="130" />
              <mxPoint x="510" y="130" />
            </Array>
          </mxGeometry>
        </mxCell>
        <mxCell id="BxUz1oVav65Ob7CPNvjl-6" value="Tutorial" style="shape=parallelogram;perimeter=parallelogramPerimeter;whiteSpace=wrap;html=1;fixedSize=1;fillColor=#d5e8d4;strokeColor=#82b366;" vertex="1" parent="1">
          <mxGeometry x="360" y="100" width="120" height="60" as="geometry" />
        </mxCell>
        <mxCell id="BxUz1oVav65Ob7CPNvjl-23" value="" style="edgeStyle=orthogonalEdgeStyle;rounded=0;orthogonalLoop=1;jettySize=auto;html=1;" edge="1" parent="1" source="BxUz1oVav65Ob7CPNvjl-13" target="BxUz1oVav65Ob7CPNvjl-22">
          <mxGeometry relative="1" as="geometry">
            <Array as="points">
              <mxPoint x="650" y="130" />
              <mxPoint x="650" y="130" />
            </Array>
          </mxGeometry>
        </mxCell>
        <mxCell id="BxUz1oVav65Ob7CPNvjl-39" style="edgeStyle=orthogonalEdgeStyle;rounded=0;orthogonalLoop=1;jettySize=auto;html=1;" edge="1" parent="1" source="BxUz1oVav65Ob7CPNvjl-13" target="BxUz1oVav65Ob7CPNvjl-38">
          <mxGeometry relative="1" as="geometry">
            <Array as="points">
              <mxPoint x="510" y="230" />
              <mxPoint x="510" y="230" />
            </Array>
          </mxGeometry>
        </mxCell>
        <mxCell id="BxUz1oVav65Ob7CPNvjl-13" value="Tutorial Store" style="whiteSpace=wrap;html=1;fillColor=#d5e8d4;strokeColor=#82b366;" vertex="1" parent="1">
          <mxGeometry x="520" y="100" width="120" height="170" as="geometry" />
        </mxCell>
        <mxCell id="BxUz1oVav65Ob7CPNvjl-17" value="" style="swimlane;startSize=0;" vertex="1" parent="1">
          <mxGeometry x="660" y="60" width="320" height="220" as="geometry">
            <mxRectangle x="480" y="190" width="50" height="40" as="alternateBounds" />
          </mxGeometry>
        </mxCell>
        <mxCell id="BxUz1oVav65Ob7CPNvjl-18" value="Element Locator" style="text;html=1;align=center;verticalAlign=middle;resizable=0;points=[];autosize=1;strokeColor=none;fillColor=none;" vertex="1" parent="BxUz1oVav65Ob7CPNvjl-17">
          <mxGeometry x="5" width="110" height="30" as="geometry" />
        </mxCell>
        <mxCell id="BxUz1oVav65Ob7CPNvjl-36" style="edgeStyle=orthogonalEdgeStyle;rounded=0;orthogonalLoop=1;jettySize=auto;html=1;" edge="1" parent="BxUz1oVav65Ob7CPNvjl-17" source="BxUz1oVav65Ob7CPNvjl-21" target="BxUz1oVav65Ob7CPNvjl-35">
          <mxGeometry relative="1" as="geometry" />
        </mxCell>
        <mxCell id="BxUz1oVav65Ob7CPNvjl-21" value="Element Matcher" style="rounded=0;whiteSpace=wrap;html=1;fillColor=#dae8fc;strokeColor=#6c8ebf;" vertex="1" parent="BxUz1oVav65Ob7CPNvjl-17">
          <mxGeometry x="180" y="140" width="120" height="60" as="geometry" />
        </mxCell>
        <mxCell id="BxUz1oVav65Ob7CPNvjl-32" style="edgeStyle=orthogonalEdgeStyle;rounded=0;orthogonalLoop=1;jettySize=auto;html=1;entryX=0.5;entryY=0;entryDx=0;entryDy=0;" edge="1" parent="BxUz1oVav65Ob7CPNvjl-17" source="BxUz1oVav65Ob7CPNvjl-25" target="BxUz1oVav65Ob7CPNvjl-21">
          <mxGeometry relative="1" as="geometry">
            <Array as="points">
              <mxPoint x="240" y="110" />
              <mxPoint x="240" y="110" />
            </Array>
          </mxGeometry>
        </mxCell>
        <mxCell id="BxUz1oVav65Ob7CPNvjl-25" value="Visible Element List" style="shape=parallelogram;perimeter=parallelogramPerimeter;whiteSpace=wrap;html=1;fixedSize=1;fillColor=#f8cecc;strokeColor=#b85450;" vertex="1" parent="BxUz1oVav65Ob7CPNvjl-17">
          <mxGeometry x="180" y="40" width="130" height="60" as="geometry" />
        </mxCell>
        <mxCell id="BxUz1oVav65Ob7CPNvjl-34" style="edgeStyle=orthogonalEdgeStyle;rounded=0;orthogonalLoop=1;jettySize=auto;html=1;entryX=0.5;entryY=0;entryDx=0;entryDy=0;" edge="1" parent="BxUz1oVav65Ob7CPNvjl-17" source="BxUz1oVav65Ob7CPNvjl-22" target="BxUz1oVav65Ob7CPNvjl-21">
          <mxGeometry relative="1" as="geometry">
            <Array as="points">
              <mxPoint x="80" y="120" />
              <mxPoint x="240" y="120" />
            </Array>
          </mxGeometry>
        </mxCell>
        <mxCell id="BxUz1oVav65Ob7CPNvjl-22" value="Element Label" style="shape=parallelogram;perimeter=parallelogramPerimeter;whiteSpace=wrap;html=1;fixedSize=1;fillColor=#ffe6cc;strokeColor=#d79b00;" vertex="1" parent="BxUz1oVav65Ob7CPNvjl-17">
          <mxGeometry x="20" y="40" width="120" height="60" as="geometry" />
        </mxCell>
        <mxCell id="BxUz1oVav65Ob7CPNvjl-35" value="Element Selector" style="shape=parallelogram;perimeter=parallelogramPerimeter;whiteSpace=wrap;html=1;fixedSize=1;fillColor=#d5e8d4;strokeColor=#82b366;" vertex="1" parent="BxUz1oVav65Ob7CPNvjl-17">
          <mxGeometry x="20" y="140" width="120" height="60" as="geometry" />
        </mxCell>
        <mxCell id="BxUz1oVav65Ob7CPNvjl-28" value="Element Tree" style="rounded=0;whiteSpace=wrap;html=1;fillColor=#f8cecc;strokeColor=#b85450;" vertex="1" parent="1">
          <mxGeometry x="1000" y="100" width="120" height="60" as="geometry" />
        </mxCell>
        <mxCell id="BxUz1oVav65Ob7CPNvjl-29" style="edgeStyle=orthogonalEdgeStyle;rounded=0;orthogonalLoop=1;jettySize=auto;html=1;" edge="1" parent="1" source="BxUz1oVav65Ob7CPNvjl-28" target="BxUz1oVav65Ob7CPNvjl-25">
          <mxGeometry relative="1" as="geometry" />
        </mxCell>
        <mxCell id="BxUz1oVav65Ob7CPNvjl-37" style="edgeStyle=orthogonalEdgeStyle;rounded=0;orthogonalLoop=1;jettySize=auto;html=1;" edge="1" parent="1" source="BxUz1oVav65Ob7CPNvjl-35" target="BxUz1oVav65Ob7CPNvjl-13">
          <mxGeometry relative="1" as="geometry">
            <Array as="points">
              <mxPoint x="650" y="230" />
              <mxPoint x="650" y="230" />
            </Array>
          </mxGeometry>
        </mxCell>
        <mxCell id="BxUz1oVav65Ob7CPNvjl-38" value="Tutorial UI" style="rounded=1;whiteSpace=wrap;html=1;fillColor=#d5e8d4;strokeColor=#82b366;" vertex="1" parent="1">
          <mxGeometry x="360" y="200" width="120" height="60" as="geometry" />
        </mxCell>
      </root>
    </mxGraphModel>
  </diagram>
</mxfile>
